# xmcd
# 
# Track frame offsets:
#     150
#     13918
#     34472
#     46481
#     65949
#     81841
#     104646
#     119233
#     139434
#     161922
#     181498
#     201824
#     221641
#     231590
#     247517
#     263408
# 
# Disc length: 3633
# 
# Revision: 1
# Processed by: cddbd v1.5.2PL0 Copyright (c) Steve Scherf et al.
# Submitted via: BonkEnc v1.0.5
# 
DISCID=fe0e2f10
DTITLE=Texas Dukes - Fatherland [CD1]
DYEAR=2008
DGENRE=Country
TTITLE0=Texas Dukes
TTITLE1=Friday Night Shuffle
TTITLE2=Lonestar Waltz
TTITLE3=Pony Ride
TTITLE4=Night Out
TTITLE5=St. Louis Swing
TTITLE6=Rum and Cola
TTITLE7=Rodeo Cowgirl
TTITLE8=Reminiscing
TTITLE9=Too Much Beer
TTITLE10=Bobbie Sue
TTITLE11=Joke's On Me
TTITLE12=Lubbock Waltz
TTITLE13=Durango Nights
TTITLE14=Highway Moon
TTITLE15=Cowboy Boogie
EXTD=Released by Wallstone Entertainment, under Creative Commons Noncommercial, No Derivitives license.
EXTT0=
EXTT1=
EXTT2=
EXTT3=
EXTT4=
EXTT5=
EXTT6=
EXTT7=
EXTT8=
EXTT9=
EXTT10=
EXTT11=
EXTT12=
EXTT13=
EXTT14=
EXTT15=
PLAYORDER=
